# xmcd CD database file
#
# Track frame offsets:
#	150
#	21075
#	40185
#	60280
#	76472
#	100555
#	119197
#	136110
#
# Disc length: 2107 seconds
#
# Revision: 0
# Processed by: cddbd v1.5.2PL0 Copyright (c) Steve Scherf et al.
# Submitted via: CDex 1.81
#
DISCID=5d083908
DTITLE=Terumasa Hino - Trade Wind
DYEAR=1986
DGENRE=Jazz
TTITLE0=Matador
TTITLE1=Black Sand Beach
TTITLE2=On This Night
TTITLE3=Portopia
TTITLE4=Trade Wind
TTITLE5=Tattletales
TTITLE6=My Mind's Made Up
TTITLE7=Riverside Park
EXTD=YEAR: 1986
EXTT0=
EXTT1=
EXTT2=
EXTT3=
EXTT4=
EXTT5=
EXTT6=
EXTT7=
PLAYORDER=
